<svg id="Layer_1" data-name="Layer 1" xmlns="http://www.w3.org/2000/svg" viewBox="0 0 16 16" fill="#ffffff"><title>Artboard 2</title><path d="M9.88,6a1.91,1.91,0,0,0-.42-.48,2,2,0,0,0-.57-.31,1.89,1.89,0,0,0-.67-.12,2.16,2.16,0,0,0-1.08.25A2.07,2.07,0,0,0,6.42,6,2.84,2.84,0,0,0,6,7,4.93,4.93,0,0,0,5.89,8,4.57,4.57,0,0,0,6,9.09a2.83,2.83,0,0,0,.4.92,2.07,2.07,0,0,0,1.8.9,1.74,1.74,0,0,0,1.35-.53A2.44,2.44,0,0,0,10.17,9H12a4.35,4.35,0,0,1-.37,1.45,3.73,3.73,0,0,1-.79,1.11,3.47,3.47,0,0,1-1.16.69,4.2,4.2,0,0,1-1.45.24,4.4,4.4,0,0,1-1.77-.34,3.83,3.83,0,0,1-1.32-.94A4.14,4.14,0,0,1,4.3,9.79,5.22,5.22,0,0,1,4,8,5.4,5.4,0,0,1,4.3,6.26a4.14,4.14,0,0,1,.83-1.43,3.75,3.75,0,0,1,1.32-1,4.24,4.24,0,0,1,1.77-.35,4.52,4.52,0,0,1,1.34.2,3.71,3.71,0,0,1,1.13.6,3.32,3.32,0,0,1,.82,1,3.52,3.52,0,0,1,.41,1.32H10.09A1.55,1.55,0,0,0,9.88,6Z"/></svg>