<svg id="Layer_1" data-name="Layer 1" xmlns="http://www.w3.org/2000/svg" viewBox="0 0 16 16"><defs><style>.cls-1{fill:#fff;}</style></defs><title>Artboard 2 copy</title><path class="cls-1" d="M4.08,6.26A4.12,4.12,0,0,1,4.9,4.83a3.79,3.79,0,0,1,1.33-1A4.18,4.18,0,0,1,8,3.52a4.22,4.22,0,0,1,1.78.35,3.75,3.75,0,0,1,1.32,1,4.12,4.12,0,0,1,.82,1.43A5.15,5.15,0,0,1,12.21,8a5,5,0,0,1-.29,1.75,4.12,4.12,0,0,1-.82,1.41,3.83,3.83,0,0,1-1.32.94A4.38,4.38,0,0,1,8,12.48a4.33,4.33,0,0,1-1.77-.34A3.87,3.87,0,0,1,4.9,11.2a4.12,4.12,0,0,1-.82-1.41A5,5,0,0,1,3.79,8,5.15,5.15,0,0,1,4.08,6.26ZM5.8,9.09a2.83,2.83,0,0,0,.4.92,2,2,0,0,0,.72.65A2.16,2.16,0,0,0,8,10.91a2.16,2.16,0,0,0,1.08-.25A2,2,0,0,0,9.8,10a2.83,2.83,0,0,0,.4-.92A4.08,4.08,0,0,0,10.33,8,4.4,4.4,0,0,0,10.2,7,2.84,2.84,0,0,0,9.8,6a1.91,1.91,0,0,0-.72-.66A2.16,2.16,0,0,0,8,5.1a2.16,2.16,0,0,0-1.08.25A1.91,1.91,0,0,0,6.2,6,2.84,2.84,0,0,0,5.8,7,4.4,4.4,0,0,0,5.67,8,4.08,4.08,0,0,0,5.8,9.09Z"/></svg>