<svg id="Layer_1" data-name="Layer 1" xmlns="http://www.w3.org/2000/svg" viewBox="0 0 16 16"><defs><style>.cls-1{fill:#fff;}</style></defs><title>soon</title><path class="cls-1" d="M6.37,10.18a1.4,1.4,0,0,0,.42.48,1.66,1.66,0,0,0,.6.28,3,3,0,0,0,.72.09,3.44,3.44,0,0,0,.54,0,1.79,1.79,0,0,0,.54-.16,1.14,1.14,0,0,0,.42-.33A.8.8,0,0,0,9.78,10a.73.73,0,0,0-.22-.56A1.59,1.59,0,0,0,9,9a5,5,0,0,0-.82-.25l-.92-.24a7.89,7.89,0,0,1-.94-.3,2.91,2.91,0,0,1-.81-.45,2.08,2.08,0,0,1-.59-.69,2.17,2.17,0,0,1-.22-1A2.36,2.36,0,0,1,5,5a2.73,2.73,0,0,1,.74-.81,3.6,3.6,0,0,1,1-.48,4.62,4.62,0,0,1,1.16-.15,5.55,5.55,0,0,1,1.29.15,3.26,3.26,0,0,1,1.09.48A2.54,2.54,0,0,1,11,5a2.74,2.74,0,0,1,.28,1.27H9.49a1.47,1.47,0,0,0-.16-.64A1,1,0,0,0,9,5.25,1.55,1.55,0,0,0,8.44,5,3.16,3.16,0,0,0,7.8,5a2.3,2.3,0,0,0-.45,0,1.2,1.2,0,0,0-.42.17,1.07,1.07,0,0,0-.3.3A.79.79,0,0,0,6.51,6a.8.8,0,0,0,.09.41A.86.86,0,0,0,7,6.65a4.14,4.14,0,0,0,.78.26l1.3.34c.16,0,.38.09.67.17a3.25,3.25,0,0,1,.84.41,2.54,2.54,0,0,1,.73.73,2.17,2.17,0,0,1,.31,1.19,2.66,2.66,0,0,1-.23,1.09,2.46,2.46,0,0,1-.68.87,3.37,3.37,0,0,1-1.12.57,5.43,5.43,0,0,1-1.54.2,5.65,5.65,0,0,1-1.37-.17,3.47,3.47,0,0,1-1.18-.55,2.67,2.67,0,0,1-.81-.95,2.9,2.9,0,0,1-.29-1.36H6.22A1.64,1.64,0,0,0,6.37,10.18Z"/></svg>